<?xml version="1.0" encoding="utf-8"?>
<!-- Generator: Adobe Illustrator 19.2.1, SVG Export Plug-In . SVG Version: 6.00 Build 0)  -->
<svg version="1.1" xmlns="http://www.w3.org/2000/svg" xmlns:xlink="http://www.w3.org/1999/xlink" x="0px" y="0px"
	 viewBox="0 0 515.9 100" style="enable-background:new 0 0 515.9 100;" xml:space="preserve">
<style type="text/css">
	.st0{display:none;}
	.st1{display:inline;fill:#CD162B;stroke:#CD162B;stroke-width:1.520000e-02;}
	.st2{display:inline;fill:#FFD344;}
	.st3{display:inline;fill:#FFD550;}
	.st4{display:inline;fill:#FFD75C;}
	.st5{display:inline;fill:#FFD967;}
	.st6{display:inline;fill:#FFDC72;}
	.st7{display:inline;fill:#FFDE7C;}
	.st8{display:inline;fill:#FFE085;}
	.st9{display:inline;fill:#FFE28F;}
	.st10{display:inline;fill:#FFE498;}
	.st11{display:inline;fill:#FFE6A1;}
	.st12{display:inline;fill:#FFE8AA;}
	.st13{display:inline;fill:#FFEAB3;}
	.st14{display:inline;fill:#FFEDBC;}
	.st15{display:inline;fill:#FFEFC5;}
	.st16{display:inline;fill:#FFF1CD;}
	.st17{display:inline;fill:#FFF3D6;}
	.st18{display:inline;fill:#FFF5DD;}
	.st19{display:inline;fill:#FFF7E5;}
	.st20{display:inline;fill:#FFF9ED;}
	.st21{display:inline;fill:#FFFBF5;}
	.st22{display:inline;fill:#FFFFFC;}
	.st23{display:inline;fill:#FFFFFF;}
	.st24{display:inline;fill:none;}
	.st25{display:inline;fill:#CD162B;}
	.st26{fill:#CD162B;stroke:#CD162B;stroke-width:1.520000e-02;}
	.st27{fill:#FFD344;}
	.st28{fill:#FFD550;}
	.st29{fill:#FFD75C;}
	.st30{fill:#FFD967;}
	.st31{fill:#FFDC72;}
	.st32{fill:#FFDE7C;}
	.st33{fill:#FFE085;}
	.st34{fill:#FFE28F;}
	.st35{fill:#FFE498;}
	.st36{fill:#FFE6A1;}
	.st37{fill:#FFE8AA;}
	.st38{fill:#FFEAB3;}
	.st39{fill:#FFEDBC;}
	.st40{fill:#FFEFC5;}
	.st41{fill:#FFF1CD;}
	.st42{fill:#FFF3D6;}
	.st43{fill:#FFF5DD;}
	.st44{fill:#FFF7E5;}
	.st45{fill:#FFF9ED;}
	.st46{fill:#FFFBF5;}
	.st47{fill:#FFFFFC;}
	.st48{fill:#FFFFFF;}
	.st49{fill:none;}
	.st50{fill:#CD162B;}
	.st51{fill:#CC1719;}
</style>
<g id="Ebene_1" class="st0">
	<path class="st1" d="M402.1,22.4c55.9-48.8,103.4,1,75.9,38.5c0,0-1.8,3-6.5,6.4c13.3-6.9,25.9-38.7,5.7-61.5
		c34.7,27.8,12.3,57.8,11.2,57.6c2.9-2.4,4.4-4.3,6.6-8c-11.4,28.3-34.5,38.5-60,28.4c7.1,5.4,18.2,6.8,28.8,8.1
		c-46.2,6.5-65.8-41.1-47.3-59.2c-8.8,8.5-11.1,14.3-14.2,25.5c-2.1-15.7,13-36.4,31.1-42.1c19.8-6.6,35.7,3,39.8,13.9
		c-5.7-20.4-33.1-24.7-62.8-6.7c4.6-6.1,19.7-13.6,27.5-13.7C433.9,8.5,417.9,12.2,402.1,22.4z"/>
	<circle class="st2" cx="449.5" cy="44" r="16"/>
	<circle class="st3" cx="449.5" cy="44" r="15.5"/>
	<circle class="st4" cx="449.5" cy="44" r="15.1"/>
	<circle class="st5" cx="449.5" cy="44" r="14.6"/>
	<circle class="st6" cx="449.5" cy="44" r="14.2"/>
	<circle class="st7" cx="449.5" cy="44" r="13.7"/>
	<circle class="st8" cx="449.5" cy="44" r="13.3"/>
	<circle class="st9" cx="449.5" cy="44" r="12.8"/>
	<circle class="st10" cx="449.5" cy="44" r="12.4"/>
	<circle class="st11" cx="449.5" cy="44" r="11.9"/>
	<circle class="st12" cx="449.5" cy="44" r="11.5"/>
	<circle class="st13" cx="449.5" cy="44" r="11"/>
	<circle class="st14" cx="449.5" cy="44" r="10.6"/>
	<circle class="st15" cx="449.5" cy="44" r="10.1"/>
	<circle class="st16" cx="449.5" cy="44" r="9.7"/>
	<circle class="st17" cx="449.5" cy="44" r="9.2"/>
	<circle class="st18" cx="449.5" cy="44" r="8.8"/>
	<circle class="st19" cx="449.5" cy="44" r="8.3"/>
	<circle class="st20" cx="449.5" cy="44" r="7.9"/>
	<circle class="st21" cx="449.5" cy="44" r="7.4"/>
	<circle class="st22" cx="449.5" cy="44" r="7"/>
	<path class="st23" d="M433.9,65.7c1.3,1.3,2.7,2.5,4.4,3.5c1.8,1,3.8,1.8,6,2.3c1.5,0.3,3.2,0.5,5,0.5c0.7,0,1.4,0,2-0.1
		c2.1-0.2,4.1-0.5,5.8-1.1c2.3-0.7,4.2-1.8,5.9-3c0.8-0.6,1.6-1.3,2.3-2c1-1.1,2-2.2,2.7-3.4c1.6-2.4,2.6-5,3.1-7.4
		c0.6-3,0.6-5.6-0.1-7.1c-0.1-0.3-0.2-0.5-0.3-0.6c-0.3-0.5-0.4,0.1-1.2,2.2c-0.2,0.6-0.5,1.2-0.8,1.8c-1.6,3.2-4.1,6.1-7.3,8.2
		c-2.4,1.6-5.2,2.8-8.2,3.4c-1.2,0.2-2.4,0.3-3.7,0.3c-2.8,0-5.2-0.4-7.4-1.1c-3.5-1.2-6.3-3.2-8.6-5.9c-2.1-2.5-3.7-5.5-5-8.9
		c0,0-0.1-1.4-0.9,1c-0.4,1.2-0.4,3.1,0,5.4c0.5,2.5,1.5,5.5,3.2,8.3C431.8,63.2,432.8,64.5,433.9,65.7L433.9,65.7z"/>
	<circle class="st24" cx="449.5" cy="44" r="16.8"/>
	<circle class="st21" cx="449.5" cy="44" r="7.6"/>
	<path class="st25" d="M444,39.7h10c0,0-0.7,14.8-0.8,15.3c-0.2,0.5-0.5,0.9-0.7-0.1c-0.9-5.7,0.8-14-1.4-14h-1
		c-0.8,0-0.9,5.3-1.1,6.2c-0.2,0.5-0.4,0.4-0.6,0.1c-0.4-0.8-0.1-6.3-1.1-6.3h-0.9c-0.5,0-1.5,3.5-2.5,4.1c-0.6,0.3-1,0.3-0.5-0.4
		c0.5-0.6,1.2-2.5,1.1-3.7c0,0-1,0-1.1,0C443.1,41,444,39.7,444,39.7z"/>
	<path class="st25" d="M24.9,27.2c1.7-0.2,3.6-0.4,5.7-0.4c3.8,0,6.6,0.9,8.4,2.6c1.9,1.7,3,4.1,3,7.4c0,3.4-1.1,6.2-3,8.1
		c-2,1.9-5.2,3-9.2,3c-1.9,0-3.5-0.1-4.9-0.2C24.9,47.7,24.9,27.2,24.9,27.2z M27.6,45.6c0.7,0.1,1.7,0.1,2.7,0.1
		c5.7,0,8.8-3.2,8.8-8.8c0-4.9-2.7-8-8.4-8c-1.4,0-2.4,0.1-3.1,0.3C27.6,29.2,27.6,45.6,27.6,45.6z"/>
	<path class="st25" d="M48.2,27v20.7h-2.7V27H48.2z"/>
	<path class="st25" d="M55.9,41.2l-2.2,6.5h-2.8l7-20.7h3.2l7.1,20.7h-2.9l-2.2-6.5H55.9z M62.7,39.1l-2.1-6c-0.4-1.4-0.7-2.6-1-3.8
		h-0.1c-0.3,1.2-0.6,2.5-1,3.8l-2,6H62.7z"/>
	<path class="st25" d="M89,38.6c-0.2-2.9-0.3-6.4-0.3-9h-0.1c-0.7,2.4-1.6,5-2.6,7.9l-3.7,10.1h-2l-3.4-9.9c-1-2.9-1.8-5.6-2.4-8.1
		h-0.1c-0.1,2.6-0.2,6.1-0.4,9.2l-0.6,8.9h-2.5L72.4,27h3.4l3.5,10c0.9,2.6,1.5,4.9,2.1,7h0.1c0.6-2.1,1.3-4.4,2.2-7l3.7-10h3.4
		l1.3,20.7h-2.6L89,38.6z"/>
	<path class="st25" d="M104.3,48c-5.5,0-9.3-4.2-9.3-10.5c0-6.6,4.1-10.9,9.6-10.9c5.7,0,9.4,4.3,9.4,10.5
		C113.9,44.2,109.6,48,104.3,48L104.3,48z M104.5,45.8c4.2,0,6.6-3.9,6.6-8.6c0-4.1-2.2-8.4-6.6-8.4c-4.5,0-6.7,4.2-6.7,8.6
		S100.2,45.8,104.5,45.8L104.5,45.8z"/>
	<path class="st25" d="M117.4,47.7V27h3l6.6,10.5c1.5,2.4,2.7,4.6,3.7,6.7h0.1c-0.2-2.8-0.3-5.3-0.3-8.5V27h2.5v20.7h-2.7l-6.6-10.5
		c-1.4-2.3-2.8-4.7-3.8-6.9h-0.1c0.2,2.6,0.2,5.1,0.2,8.6v8.9h-2.6V47.7z"/>
	<path class="st25" d="M137.6,27.2c1.7-0.2,3.6-0.4,5.7-0.4c3.8,0,6.6,0.9,8.4,2.6c1.9,1.7,3,4.1,3,7.4c0,3.4-1.1,6.2-3,8.1
		c-2,1.9-5.2,3-9.2,3c-1.9,0-3.5-0.1-4.9-0.2C137.6,47.7,137.6,27.2,137.6,27.2z M140.3,45.6c0.7,0.1,1.7,0.1,2.7,0.1
		c5.7,0,8.8-3.2,8.8-8.8c0-4.9-2.7-8-8.4-8c-1.4,0-2.4,0.1-3.1,0.3V45.6z"/>
	<path class="st25" d="M168,47.7L162.8,27h2.8l2.5,10.5c0.6,2.6,1.2,5.2,1.5,7.2h0.1c0.3-2.1,1-4.5,1.7-7.2l2.8-10.5h2.8l2.5,10.5
		c0.6,2.5,1.1,4.9,1.4,7.1h0.1c0.4-2.3,1-4.6,1.7-7.2l2.7-10.5h2.7l-5.9,20.7h-2.8l-2.6-10.8c-0.6-2.7-1.1-4.7-1.4-6.8h-0.1
		c-0.3,2.1-0.8,4.1-1.6,6.8l-3,10.8H168V47.7z"/>
	<path class="st25" d="M194,41.2l-2.2,6.5H189l7-20.7h3.2l7.1,20.7h-2.9l-2.2-6.5H194z M200.8,39.1l-2.1-6c-0.4-1.4-0.7-2.6-1-3.8
		h-0.1c-0.3,1.2-0.6,2.5-1,3.8l-2,6H200.8z"/>
	<path class="st25" d="M214.1,47.7v-8.8L207.6,27h3.1l2.9,5.7c0.8,1.6,1.4,2.8,2.1,4.3h0.1c0.6-1.4,1.3-2.7,2.1-4.3l3-5.7h3
		L217,38.9v8.8H214.1z"/>
	<path class="st25" d="M232.7,27.3c1.2-0.3,3-0.5,4.9-0.5c2.7,0,4.4,0.5,5.7,1.5c1.1,0.8,1.8,2,1.8,3.7c0,2-1.4,3.8-3.5,4.6v0.1
		c2,0.5,4.3,2.1,4.3,5.2c0,1.8-0.7,3.1-1.8,4.2c-1.4,1.3-3.8,1.9-7.1,1.9c-1.8,0-3.3-0.1-4.2-0.2L232.7,27.3L232.7,27.3z
		 M235.4,35.8h2.4c2.8,0,4.5-1.5,4.5-3.5c0-2.4-1.8-3.4-4.5-3.4c-1.2,0-1.9,0.1-2.4,0.2V35.8z M235.4,45.7c0.6,0.1,1.3,0.1,2.2,0.1
		c2.8,0,5.3-1,5.3-4c0-2.8-2.4-4-5.4-4h-2.2L235.4,45.7L235.4,45.7z"/>
	<path class="st25" d="M252,27v12.3c0,4.6,2.1,6.6,4.8,6.6c3,0,5-2,5-6.6V27h2.7v12.1c0,6.4-3.4,9-7.8,9c-4.2,0-7.4-2.4-7.4-8.9V27
		H252z"/>
	<path class="st25" d="M269.2,27.2c1.7-0.2,3.6-0.4,5.7-0.4c3.8,0,6.6,0.9,8.4,2.6c1.9,1.7,3,4.1,3,7.4c0,3.4-1.1,6.2-3,8.1
		c-2,1.9-5.2,3-9.2,3c-1.9,0-3.5-0.1-4.9-0.2V27.2z M271.9,45.6c0.7,0.1,1.7,0.1,2.7,0.1c5.7,0,8.8-3.2,8.8-8.8c0-4.9-2.7-8-8.4-8
		c-1.4,0-2.4,0.1-3.1,0.3V45.6z"/>
	<path class="st25" d="M289.7,27.2c1.7-0.2,3.6-0.4,5.7-0.4c3.8,0,6.6,0.9,8.4,2.6c1.9,1.7,3,4.1,3,7.4c0,3.4-1.1,6.2-3,8.1
		c-2,1.9-5.2,3-9.2,3c-1.9,0-3.5-0.1-4.9-0.2V27.2z M292.4,45.6c0.7,0.1,1.7,0.1,2.7,0.1c5.7,0,8.8-3.2,8.8-8.8c0-4.9-2.7-8-8.4-8
		c-1.4,0-2.4,0.1-3.1,0.3V45.6z"/>
	<path class="st25" d="M312.9,27v8.7h10V27h2.7v20.7h-2.7V38h-10v9.7h-2.7V27H312.9z"/>
	<path class="st25" d="M333,27v20.7h-2.7V27H333z"/>
	<path class="st25" d="M337.3,44.4c1.2,0.7,2.9,1.3,4.8,1.3c2.7,0,4.3-1.4,4.3-3.5c0-1.9-1.1-3.1-3.9-4.1c-3.4-1.2-5.5-3-5.5-5.8
		c0-3.2,2.7-5.6,6.7-5.6c2.1,0,3.7,0.5,4.6,1l-0.7,2.2c-0.6-0.4-2-1-3.9-1c-2.8,0-3.9,1.7-3.9,3.1c0,1.9,1.3,2.9,4.1,4
		c3.5,1.4,5.3,3,5.3,6.1c0,3.2-2.3,6-7.2,6c-2,0-4.2-0.6-5.3-1.4L337.3,44.4z"/>
	<path class="st25" d="M370.3,38.6c-0.2-2.9-0.3-6.4-0.3-9h-0.1c-0.7,2.4-1.6,5-2.6,7.9l-3.7,10.1h-2l-3.4-9.9
		c-1-2.9-1.8-5.6-2.4-8.1h-0.1c-0.1,2.6-0.2,6.1-0.4,9.2l-0.6,8.9h-2.6l1.4-20.7h3.4l3.5,10c0.9,2.6,1.5,4.9,2.1,7h0.1
		c0.6-2.1,1.3-4.4,2.2-7l3.7-10h3.4l1.3,20.7h-2.6L370.3,38.6z"/>
	<path class="st25" d="M187.5,64.1h1.6V70h0.1c0.3-0.5,0.7-0.9,1-1.3l3.7-4.6h2l-4.4,5.2l4.8,7.1h-1.9l-4-6l-1.2,1.3v4.7h-1.6V64.1
		H187.5z"/>
	<path class="st25" d="M200.2,72.5l-1.3,3.9h-1.6l4.2-12.3h1.9l4.2,12.3h-1.7l-1.3-3.9H200.2z M204.2,71.3l-1.2-3.5
		c-0.3-0.8-0.4-1.5-0.6-2.2h-0.1c-0.2,0.7-0.4,1.5-0.6,2.2l-1.2,3.5H204.2z"/>
	<path class="st25" d="M209.5,64.3c0.8-0.2,2-0.3,3-0.3c1.7,0,2.8,0.3,3.6,1c0.6,0.5,1,1.4,1,2.3c0,1.6-1,2.7-2.3,3.1v0.1
		c0.9,0.3,1.5,1.2,1.8,2.5c0.4,1.7,0.7,2.9,0.9,3.4h-1.6c-0.2-0.4-0.5-1.4-0.8-2.9c-0.4-1.7-1-2.3-2.5-2.4h-1.5v5.3h-1.6L209.5,64.3
		L209.5,64.3z M211.1,69.9h1.6c1.7,0,2.8-0.9,2.8-2.3c0-1.6-1.1-2.3-2.8-2.3c-0.8,0-1.3,0.1-1.6,0.1V69.9z"/>
	<path class="st25" d="M230,71c-0.1-1.7-0.2-3.8-0.2-5.3l0,0c-0.4,1.4-0.9,3-1.5,4.7l-2.2,5.9h-1.2l-2-5.8c-0.6-1.7-1.1-3.3-1.4-4.8
		l0,0c0,1.5-0.1,3.6-0.2,5.4l-0.3,5.3h-1.5l0.9-12.3h2l2.1,5.9c0.5,1.5,0.9,2.9,1.2,4.1l0,0c0.3-1.2,0.8-2.6,1.3-4.1l2.2-5.9h2
		l0.8,12.3h-1.6L230,71z"/>
	<path class="st25" d="M236.6,72.5l-1.3,3.9h-1.6l4.2-12.3h1.9l4.2,12.3h-1.7l-1.3-3.9H236.6z M240.7,71.3l-1.2-3.5
		c-0.3-0.8-0.4-1.5-0.6-2.2h-0.1c-0.2,0.7-0.4,1.5-0.6,2.2l-1.2,3.5H240.7z"/>
	<path class="st25" d="M249.6,64.1h1.6V70h0.1c0.3-0.5,0.7-0.9,1-1.3l3.7-4.6h2l-4.4,5.2l4.8,7.1h-1.9l-4-6l-1.2,1.3v4.7h-1.6V64.1
		H249.6z"/>
	<path class="st25" d="M262.4,72.5l-1.3,3.9h-1.6l4.2-12.3h1.9l4.2,12.3h-1.7l-1.3-3.9H262.4z M266.4,71.3l-1.2-3.5
		c-0.3-0.8-0.4-1.5-0.6-2.2h-0.1c-0.2,0.7-0.4,1.5-0.6,2.2l-1.2,3.5H266.4z"/>
	<path class="st25" d="M280.9,75.8c-0.7,0.3-2.1,0.7-3.8,0.7c-1.9,0-3.4-0.5-4.6-1.6c-1.1-1-1.7-2.7-1.7-4.6c0-3.7,2.5-6.3,6.6-6.3
		c1.4,0,2.5,0.3,3.1,0.6l-0.4,1.3c-0.7-0.3-1.5-0.5-2.7-0.5c-3,0-4.9,1.9-4.9,4.9c0,3.1,1.9,4.9,4.7,4.9c1,0,1.7-0.1,2.1-0.3v-3.7
		h-2.5V70h4L280.9,75.8L280.9,75.8z"/>
	<path class="st25" d="M286.3,76.4v-5.2l-3.9-7.1h1.8l1.7,3.4c0.5,0.9,0.8,1.7,1.2,2.5l0,0c0.3-0.8,0.8-1.6,1.2-2.5l1.8-3.4h1.8
		l-4.1,7v5.2L286.3,76.4L286.3,76.4z"/>
	<path class="st25" d="M295.3,64.1v7.3c0,2.7,1.2,3.9,2.9,3.9c1.8,0,3-1.2,3-3.9v-7.3h1.6v7.2c0,3.8-2,5.3-4.6,5.3
		c-2.5,0-4.4-1.4-4.4-5.2v-7.2h1.5V64.1z"/>
	<path class="st25" d="M309.3,64.1h1.6V75h5.2v1.3h-6.8L309.3,64.1L309.3,64.1z"/>
	<path class="st25" d="M319.7,64.1v12.3h-1.6V64.1H319.7z"/>
	<path class="st25" d="M322.8,76.4V64.1h1.7l3.9,6.2c0.9,1.4,1.6,2.7,2.2,4h0.1c-0.1-1.6-0.2-3.1-0.2-5v-5.1h1.5v12.3h-1.6l-3.9-6.2
		c-0.9-1.4-1.7-2.8-2.3-4.1h-0.1c0.1,1.5,0.1,3,0.1,5.1v5.2L322.8,76.4L322.8,76.4z"/>
	<path class="st25" d="M341.4,70.6h-4.7V75h5.3v1.3h-6.9V64.1h6.6v1.3h-5v3.9h4.7V70.6z"/>
	<path class="st25" d="M346.5,72.5l-1.3,3.9h-1.6l4.2-12.3h1.9l4.2,12.3h-1.7l-1.3-3.9H346.5z M350.5,71.3l-1.2-3.5
		c-0.3-0.8-0.4-1.5-0.6-2.2h-0.1c-0.2,0.7-0.4,1.5-0.6,2.2l-1.2,3.5H350.5z"/>
	<path class="st25" d="M364.9,75.8c-0.7,0.3-2.1,0.7-3.8,0.7c-1.9,0-3.4-0.5-4.6-1.6c-1.1-1-1.7-2.7-1.7-4.6c0-3.7,2.5-6.3,6.6-6.3
		c1.4,0,2.5,0.3,3.1,0.6l-0.4,1.3c-0.7-0.3-1.5-0.5-2.7-0.5c-3,0-4.9,1.9-4.9,4.9c0,3.1,1.9,4.9,4.7,4.9c1,0,1.7-0.1,2.1-0.3v-3.7
		h-2.5V70h4L364.9,75.8L364.9,75.8z"/>
	<path class="st25" d="M374,70.6h-4.7V75h5.3v1.3h-6.9V64.1h6.6v1.3h-5v3.9h4.7V70.6z"/>
</g>
<g id="Ebene_2">
	<path class="st26" d="M402.1,22.4c56-48.8,103.4,1,75.9,38.5c0,0-1.8,3-6.5,6.4c13.3-6.9,25.9-38.7,5.7-61.6
		c34.7,27.8,12.3,57.8,11.2,57.6c2.9-2.4,4.4-4.3,6.6-8c-11.4,28.3-34.5,38.5-60,28.4c7.1,5.4,18.2,6.8,28.8,8.1
		c-46.2,6.5-65.8-41.1-47.4-59.2c-8.8,8.5-11.1,14.3-14.2,25.5c-2.1-15.7,13-36.4,31.1-42.1c19.8-6.6,35.7,3,39.8,13.9
		c-5.7-20.4-33.1-24.7-62.9-6.7c4.6-6.1,19.7-13.6,27.5-13.7C433.9,8.5,417.9,12.1,402.1,22.4z"/>
	<g>
		<circle class="st27" cx="450.1" cy="43.9" r="16"/>
		<circle class="st28" cx="450.1" cy="43.9" r="15.5"/>
		<circle class="st29" cx="450.1" cy="43.9" r="15.1"/>
		<circle class="st30" cx="450.1" cy="43.9" r="14.6"/>
		<circle class="st31" cx="450.1" cy="43.9" r="14.2"/>
		<circle class="st32" cx="450.1" cy="43.9" r="13.7"/>
		<circle class="st33" cx="450.1" cy="43.9" r="13.3"/>
		<circle class="st34" cx="450.1" cy="43.9" r="12.8"/>
		<circle class="st35" cx="450.1" cy="43.9" r="12.4"/>
		<circle class="st36" cx="450.1" cy="43.9" r="11.9"/>
		<circle class="st37" cx="450.1" cy="43.9" r="11.5"/>
		<circle class="st38" cx="450.1" cy="43.9" r="11"/>
		<circle class="st39" cx="450.1" cy="43.9" r="10.6"/>
		<circle class="st40" cx="450.1" cy="43.9" r="10.1"/>
		<circle class="st41" cx="450.1" cy="43.9" r="9.7"/>
		<circle class="st42" cx="450.1" cy="43.9" r="9.2"/>
		<circle class="st43" cx="450.1" cy="43.9" r="8.8"/>
		<circle class="st44" cx="450.1" cy="43.9" r="8.3"/>
		<circle class="st45" cx="450.1" cy="43.9" r="7.9"/>
		<circle class="st46" cx="450.1" cy="43.9" r="7.4"/>
		<circle class="st47" cx="450.1" cy="43.9" r="7"/>
	</g>
	<path class="st48" d="M434.5,65.6c1.3,1.3,2.7,2.5,4.4,3.5c1.8,1,3.8,1.8,6,2.3c1.5,0.3,3.2,0.5,5,0.5c0.7,0,1.4,0,2-0.1
		c2.1-0.2,4.1-0.5,5.8-1.1c2.3-0.7,4.2-1.8,5.9-3c0.8-0.6,1.6-1.3,2.3-2c1-1.1,2-2.2,2.7-3.4c1.6-2.4,2.6-5,3.1-7.4
		c0.7-3,0.6-5.6-0.1-7.1c-0.1-0.3-0.2-0.5-0.3-0.6c-0.3-0.5-0.4,0.1-1.2,2.2c-0.2,0.6-0.5,1.2-0.8,1.8c-1.6,3.2-4.1,6.1-7.3,8.2
		c-2.4,1.6-5.2,2.8-8.2,3.4c-1.2,0.2-2.4,0.3-3.7,0.3c-2.8,0-5.2-0.4-7.4-1.1c-3.5-1.2-6.3-3.2-8.6-5.9c-2.1-2.5-3.7-5.5-5-8.9
		c0,0-0.1-1.4-0.9,1c-0.4,1.2-0.4,3.1,0,5.4c0.5,2.5,1.5,5.5,3.2,8.3C432.4,63.1,433.4,64.4,434.5,65.6L434.5,65.6z"/>
	<circle class="st49" cx="450.1" cy="43.9" r="16.8"/>
	<circle class="st46" cx="450.1" cy="43.9" r="7.6"/>
	<path class="st50" d="M444.6,39.7l10,0c0,0-0.7,14.8-0.8,15.3c-0.2,0.5-0.5,0.9-0.7-0.1c-0.9-5.7,0.8-14-1.4-14c0,0-1,0-1,0
		c-0.8,0-0.9,5.3-1.1,6.2c-0.2,0.5-0.4,0.4-0.6,0.1c-0.4-0.8-0.1-6.3-1.1-6.3H447c-0.5,0-1.5,3.5-2.5,4.1c-0.6,0.3-1,0.3-0.5-0.4
		c0.5-0.6,1.2-2.5,1.1-3.7c0,0-1,0-1.1,0C443.7,41,444.6,39.7,444.6,39.7z"/>
	<g>
		<path class="st51" d="M0,27.2c1.7-0.2,3.6-0.4,5.7-0.4c3.8,0,6.6,0.9,8.4,2.6c1.9,1.7,3,4.1,3,7.4c0,3.4-1.1,6.2-3,8.1
			c-2,1.9-5.2,3-9.2,3c-1.9,0-3.5-0.1-4.9-0.2V27.2z M2.7,45.6c0.7,0.1,1.7,0.1,2.7,0.1c5.7,0,8.8-3.2,8.8-8.8c0-4.9-2.7-8-8.4-8
			c-1.4,0-2.4,0.1-3.1,0.3V45.6z"/>
		<path class="st51" d="M23.3,26.9v20.7h-2.7V26.9H23.3z"/>
		<path class="st51" d="M31,41.2l-2.2,6.5h-2.8l7-20.7h3.2l7.1,20.7h-2.9l-2.2-6.5H31z M37.8,39.1l-2.1-6c-0.4-1.4-0.7-2.6-1-3.8
			h-0.1c-0.3,1.2-0.6,2.5-1,3.8l-2,6H37.8z"/>
		<path class="st51" d="M64.1,38.6c-0.2-2.9-0.3-6.4-0.3-9h-0.1c-0.7,2.4-1.6,5-2.6,7.9l-3.7,10.1h-2L52,37.7
			c-1-2.9-1.8-5.6-2.4-8.1h-0.1c-0.1,2.6-0.2,6.1-0.4,9.2l-0.6,8.9H46l1.4-20.7h3.4l3.5,10c0.9,2.6,1.5,4.9,2.1,7h0.1
			c0.6-2.1,1.3-4.4,2.2-7l3.7-10h3.4l1.3,20.7h-2.6L64.1,38.6z"/>
		<path class="st51" d="M74.6,41.2l-2.2,6.5h-2.8l7-20.7H80l7.1,20.7h-2.9L82,41.2H74.6z M81.4,39.1l-2.1-6c-0.4-1.4-0.7-2.6-1-3.8
			h-0.1c-0.3,1.2-0.6,2.5-1,3.8l-2,6H81.4z"/>
		<path class="st51" d="M89.9,47.7V26.9h3l6.6,10.5c1.5,2.4,2.7,4.6,3.7,6.7l0.1,0c-0.2-2.8-0.3-5.3-0.3-8.5v-8.7h2.5v20.7h-2.7
			l-6.6-10.5c-1.4-2.3-2.8-4.7-3.8-6.9l-0.1,0c0.2,2.6,0.2,5.1,0.2,8.6v8.9H89.9z"/>
		<path class="st51" d="M114.3,29.2H108v-2.3h15.4v2.3h-6.3v18.5h-2.7V29.2z"/>
		<path class="st51" d="M130.6,47.7l-5.3-20.7h2.8l2.5,10.5c0.6,2.6,1.2,5.2,1.5,7.2h0.1c0.3-2.1,1-4.5,1.7-7.2l2.8-10.5h2.8
			l2.5,10.5c0.6,2.5,1.1,4.9,1.4,7.1h0.1c0.4-2.3,1-4.6,1.7-7.2l2.7-10.5h2.7l-5.9,20.7H142l-2.6-10.8c-0.6-2.7-1.1-4.7-1.4-6.8H138
			c-0.3,2.1-0.8,4.1-1.6,6.8l-3,10.8H130.6z"/>
		<path class="st51" d="M164.2,38h-8v7.5h9v2.2h-11.7V26.9h11.2v2.2h-8.5v6.6h8V38z"/>
		<path class="st51" d="M184.6,46.8c-1.2,0.5-3.6,1.1-6.4,1.1c-3.1,0-5.7-0.8-7.8-2.7c-1.8-1.7-2.9-4.5-2.9-7.7
			c0-6.2,4.3-10.7,11.2-10.7c2.4,0,4.3,0.5,5.2,1l-0.7,2.2c-1.1-0.5-2.5-0.9-4.6-0.9c-5,0-8.3,3.1-8.3,8.3c0,5.3,3.1,8.4,8,8.4
			c1.8,0,3-0.2,3.6-0.6V39h-4.2v-2.2h6.8V46.8z"/>
		<path class="st51" d="M195.6,38.4v2H188v-2H195.6z"/>
		<path class="st51" d="M199.4,27.3c1.2-0.3,3-0.5,4.9-0.5c2.7,0,4.4,0.5,5.7,1.5c1.1,0.8,1.8,2,1.8,3.7c0,2-1.4,3.8-3.5,4.6v0.1
			c2,0.5,4.3,2.1,4.3,5.2c0,1.8-0.7,3.1-1.8,4.2c-1.4,1.3-3.8,1.9-7.1,1.9c-1.8,0-3.3-0.1-4.2-0.2V27.3z M202.1,35.7h2.4
			c2.8,0,4.5-1.5,4.5-3.5c0-2.4-1.8-3.4-4.5-3.4c-1.2,0-1.9,0.1-2.4,0.2V35.7z M202.1,45.7c0.6,0.1,1.3,0.1,2.2,0.1
			c2.8,0,5.3-1,5.3-4c0-2.8-2.4-4-5.4-4h-2.2V45.7z"/>
		<path class="st51" d="M218.6,26.9v12.3c0,4.6,2.1,6.6,4.8,6.6c3,0,5-2,5-6.6V26.9h2.7v12.1c0,6.4-3.4,9-7.8,9
			c-4.2,0-7.4-2.4-7.4-8.9V26.9H218.6z"/>
		<path class="st51" d="M235.7,27.2c1.7-0.2,3.6-0.4,5.7-0.4c3.8,0,6.6,0.9,8.4,2.6c1.9,1.7,3,4.1,3,7.4c0,3.4-1.1,6.2-3,8.1
			c-2,1.9-5.2,3-9.2,3c-1.9,0-3.5-0.1-4.9-0.2V27.2z M238.4,45.6c0.7,0.1,1.7,0.1,2.7,0.1c5.7,0,8.8-3.2,8.8-8.8c0-4.9-2.7-8-8.4-8
			c-1.4,0-2.4,0.1-3.1,0.3V45.6z"/>
		<path class="st51" d="M256.3,27.2c1.7-0.2,3.6-0.4,5.7-0.4c3.8,0,6.6,0.9,8.4,2.6c1.9,1.7,3,4.1,3,7.4c0,3.4-1.1,6.2-3,8.1
			c-2,1.9-5.2,3-9.2,3c-1.9,0-3.5-0.1-4.9-0.2V27.2z M259,45.6c0.7,0.1,1.7,0.1,2.7,0.1c5.7,0,8.8-3.2,8.8-8.8c0-4.9-2.7-8-8.4-8
			c-1.4,0-2.4,0.1-3.1,0.3V45.6z"/>
		<path class="st51" d="M279.5,26.9v8.7h10v-8.7h2.7v20.7h-2.7V38h-10v9.7h-2.7V26.9H279.5z"/>
		<path class="st51" d="M299.5,26.9v20.7h-2.7V26.9H299.5z"/>
		<path class="st51" d="M303.6,44.4c1.2,0.7,2.9,1.3,4.8,1.3c2.7,0,4.3-1.4,4.3-3.5c0-1.9-1.1-3.1-3.9-4.1c-3.4-1.2-5.5-3-5.5-5.8
			c0-3.2,2.7-5.6,6.7-5.6c2.1,0,3.7,0.5,4.6,1l-0.7,2.2c-0.6-0.4-2-1-3.9-1c-2.8,0-3.9,1.7-3.9,3.1c0,1.9,1.3,2.9,4.1,4
			c3.5,1.4,5.3,3,5.3,6.1c0,3.2-2.3,6-7.2,6c-2,0-4.2-0.6-5.3-1.4L303.6,44.4z"/>
		<path class="st51" d="M336.1,38.6c-0.2-2.9-0.3-6.4-0.3-9h-0.1c-0.7,2.4-1.6,5-2.6,7.9l-3.7,10.1h-2l-3.4-9.9
			c-1-2.9-1.8-5.6-2.4-8.1h-0.1c-0.1,2.6-0.2,6.1-0.4,9.2l-0.6,8.9H318l1.4-20.7h3.4l3.5,10c0.9,2.6,1.5,4.9,2.1,7h0.1
			c0.6-2.1,1.3-4.4,2.2-7l3.7-10h3.4l1.3,20.7h-2.6L336.1,38.6z"/>
		<path class="st51" d="M345.8,26.9v12.3c0,4.6,2.1,6.6,4.8,6.6c3,0,5-2,5-6.6V26.9h2.7v12.1c0,6.4-3.4,9-7.8,9
			c-4.2,0-7.4-2.4-7.4-8.9V26.9H345.8z"/>
		<path class="st51" d="M362.1,44.4c1.2,0.7,2.9,1.3,4.8,1.3c2.7,0,4.3-1.4,4.3-3.5c0-1.9-1.1-3.1-3.9-4.1c-3.4-1.2-5.5-3-5.5-5.8
			c0-3.2,2.7-5.6,6.7-5.6c2.1,0,3.7,0.5,4.6,1l-0.7,2.2c-0.6-0.4-2-1-3.9-1c-2.8,0-3.9,1.7-3.9,3.1c0,1.9,1.3,2.9,4.1,4
			c3.5,1.4,5.3,3,5.3,6.1c0,3.2-2.3,6-7.2,6c-2,0-4.2-0.6-5.3-1.4L362.1,44.4z"/>
		<path class="st51" d="M215.6,64.1h1.6V70h0.1c0.3-0.5,0.7-0.9,1-1.3l3.7-4.6h2l-4.4,5.2l4.8,7.1h-1.9l-4-6l-1.2,1.3v4.7h-1.6V64.1
			z"/>
		<path class="st51" d="M228.3,72.5l-1.3,3.9h-1.6l4.2-12.3h1.9l4.2,12.3H234l-1.3-3.9H228.3z M232.3,71.3l-1.2-3.5
			c-0.3-0.8-0.4-1.5-0.6-2.2h-0.1c-0.2,0.7-0.4,1.5-0.6,2.2l-1.2,3.5H232.3z"/>
		<path class="st51" d="M237.7,64.3c0.8-0.2,2-0.3,3-0.3c1.7,0,2.8,0.3,3.6,1c0.6,0.5,1,1.4,1,2.3c0,1.6-1,2.7-2.3,3.1v0.1
			c0.9,0.3,1.5,1.2,1.8,2.5c0.4,1.7,0.7,2.9,0.9,3.4H244c-0.2-0.4-0.5-1.4-0.8-2.9c-0.4-1.7-1-2.3-2.5-2.4h-1.5v5.3h-1.6V64.3z
			 M239.2,69.9h1.6c1.7,0,2.8-0.9,2.8-2.3c0-1.6-1.1-2.3-2.8-2.3c-0.8,0-1.3,0.1-1.6,0.1V69.9z"/>
		<path class="st51" d="M258.1,71c-0.1-1.7-0.2-3.8-0.2-5.3h0c-0.4,1.4-0.9,3-1.5,4.7l-2.2,5.9H253l-2-5.8c-0.6-1.7-1.1-3.3-1.4-4.8
			h0c0,1.5-0.1,3.6-0.2,5.4l-0.3,5.3h-1.5l0.9-12.3h2l2.1,5.9c0.5,1.5,0.9,2.9,1.2,4.1h0c0.3-1.2,0.8-2.6,1.3-4.1l2.2-5.9h2
			l0.8,12.3h-1.6L258.1,71z"/>
		<path class="st51" d="M264.8,72.5l-1.3,3.9h-1.6l4.2-12.3h1.9l4.2,12.3h-1.7l-1.3-3.9H264.8z M268.8,71.3l-1.2-3.5
			c-0.3-0.8-0.4-1.5-0.6-2.2h-0.1c-0.2,0.7-0.4,1.5-0.6,2.2l-1.2,3.5H268.8z"/>
		<path class="st51" d="M277.8,64.1h1.6V70h0.1c0.3-0.5,0.7-0.9,1-1.3l3.7-4.6h2l-4.4,5.2l4.8,7.1h-1.9l-4-6l-1.2,1.3v4.7h-1.6V64.1
			z"/>
		<path class="st51" d="M290.5,72.5l-1.3,3.9h-1.6l4.2-12.3h1.9l4.2,12.3h-1.7l-1.3-3.9H290.5z M294.5,71.3l-1.2-3.5
			c-0.3-0.8-0.4-1.5-0.6-2.2h-0.1c-0.2,0.7-0.4,1.5-0.6,2.2l-1.2,3.5H294.5z"/>
		<path class="st51" d="M308.8,75.8c-0.7,0.3-2.1,0.7-3.8,0.7c-1.9,0-3.4-0.5-4.6-1.6c-1.1-1-1.7-2.7-1.7-4.6c0-3.7,2.5-6.3,6.6-6.3
			c1.4,0,2.5,0.3,3.1,0.6l-0.4,1.3c-0.7-0.3-1.5-0.5-2.7-0.5c-3,0-4.9,1.9-4.9,4.9c0,3.1,1.9,4.9,4.7,4.9c1,0,1.7-0.1,2.1-0.3v-3.7
			h-2.5V70h4V75.8z"/>
		<path class="st51" d="M314.2,76.4v-5.2l-3.9-7.1h1.8l1.7,3.4c0.5,0.9,0.8,1.7,1.2,2.5h0c0.3-0.8,0.8-1.6,1.2-2.5l1.8-3.4h1.8
			l-4.1,7v5.2H314.2z"/>
		<path class="st51" d="M323.3,64.1v7.3c0,2.7,1.2,3.9,2.9,3.9c1.8,0,3-1.2,3-3.9v-7.3h1.6v7.2c0,3.8-2,5.3-4.6,5.3
			c-2.5,0-4.4-1.4-4.4-5.2v-7.2H323.3z M324.6,63.3c-0.5,0-0.9-0.4-0.9-0.9c0-0.5,0.4-0.9,0.9-0.9c0.5,0,0.9,0.4,0.9,0.9
			C325.5,62.9,325.1,63.3,324.6,63.3L324.6,63.3z M327.9,63.3c-0.5,0-0.9-0.4-0.9-0.9c0-0.5,0.4-0.9,0.9-0.9c0.5,0,0.9,0.4,0.9,0.9
			C328.8,62.9,328.5,63.3,327.9,63.3L327.9,63.3z"/>
		<path class="st51" d="M337.3,64.1h1.6v10.9h5.2v1.3h-6.8V64.1z"/>
		<path class="st51" d="M347.7,64.1v12.3h-1.6V64.1H347.7z"/>
		<path class="st51" d="M350.8,76.4V64.1h1.7l3.9,6.2c0.9,1.4,1.6,2.7,2.2,4l0.1,0c-0.1-1.6-0.2-3.1-0.2-5v-5.1h1.5v12.3h-1.6
			l-3.9-6.2c-0.9-1.4-1.7-2.8-2.3-4.1l-0.1,0c0.1,1.5,0.1,3,0.1,5.1v5.2H350.8z"/>
		<path class="st51" d="M364.7,64.1v12.3h-1.6V64.1H364.7z"/>
		<path class="st51" d="M374.1,70.6h-4.7v4.4h5.3v1.3h-6.9V64.1h6.6v1.3h-5v3.9h4.7V70.6z"/>
	</g>
</g>
</svg>

